<svg xmlns="http://www.w3.org/2000/svg" viewBox="0 0 750 750" width="750" height="750" shape-rendering="crispEdges"><style>@keyframes k0{0%{fill:none}16.6667%{fill:#000000}33.3333%{fill:none}50%{fill:#000000}66.6667%{fill:none}83.3333%{fill:#000000}100%{fill:#000000}}@keyframes k1{0%{fill:#000000}16.6667%{fill:none}33.3333%{fill:#000000}50%{fill:none}66.6667%{fill:#000000}83.3333%{fill:none}100%{fill:none}}@keyframes k2{0%{fill:none}50%{fill:#000000}66.6667%{fill:none}83.3333%{fill:#000000}100%{fill:#000000}}@keyframes k3{0%{fill:none}33.3333%{fill:#000000}50%{fill:none}100%{fill:none}}@keyframes k4{0%{fill:#000000}16.6667%{fill:#eab308}33.3333%{fill:#000000}50%{fill:#eab308}66.6667%{fill:#000000}83.3333%{fill:#eab308}100%{fill:#eab308}}@keyframes k5{0%{fill:#000000}16.6667%{fill:none}66.6667%{fill:#000000}83.3333%{fill:none}100%{fill:none}}@keyframes k6{0%{fill:none}16.6667%{fill:#000000}33.3333%{fill:none}100%{fill:none}}@keyframes k7{0%{fill:#eab308}16.6667%{fill:#f8fafc}33.3333%{fill:#eab308}50%{fill:#f8fafc}66.6667%{fill:#eab308}83.3333%{fill:#f8fafc}100%{fill:#f8fafc}}@keyframes k8{0%{fill:#f8fafc}16.6667%{fill:#000000}33.3333%{fill:#f8fafc}50%{fill:#000000}66.6667%{fill:#f8fafc}83.3333%{fill:#000000}100%{fill:#000000}}@keyframes k9{0%{fill:#f8fafc}16.6667%{fill:#eab308}33.3333%{fill:#f8fafc}50%{fill:#eab308}66.6667%{fill:#f8fafc}83.3333%{fill:#eab308}100%{fill:#eab308}}@keyframes k10{0%{fill:#000000}16.6667%{fill:#f8fafc}33.3333%{fill:#000000}50%{fill:#f8fafc}66.6667%{fill:#000000}83.3333%{fill:#f8fafc}100%{fill:#f8fafc}}@keyframes k11{0%{fill:#eab308}16.6667%{fill:#000000}33.3333%{fill:#eab308}50%{fill:#000000}66.6667%{fill:#eab308}83.3333%{fill:#000000}100%{fill:#000000}}</style><rect x="350" y="0" width="50" height="50" fill="none" style="animation:k0 1.5s step-end infinite"/><rect x="350" y="50" width="50" height="50" fill="#000000"/><rect x="300" y="100" width="50" height="50" fill="none" style="animation:k0 1.5s step-end infinite"/><rect x="350" y="100" width="50" height="50" fill="#000000"/><rect x="400" y="100" width="50" height="50" fill="none" style="animation:k0 1.5s step-end infinite"/><rect x="300" y="150" width="50" height="50" fill="#000000" style="animation:k1 1.5s step-end infinite"/><rect x="350" y="150" width="50" height="50" fill="#000000"/><rect x="400" y="150" width="50" height="50" fill="#000000" style="animation:k1 1.5s step-end infinite"/><rect x="0" y="200" width="50" height="50" fill="none" style="animation:k2 1.5s step-end infinite"/><rect x="50" y="200" width="50" height="50" fill="none" style="animation:k3 1.5s step-end infinite"/><rect x="100" y="200" width="50" height="50" fill="none" style="animation:k2 1.5s step-end infinite"/><rect x="150" y="200" width="50" height="50" fill="none" style="animation:k3 1.5s step-end infinite"/><rect x="300" y="200" width="50" height="50" fill="none" style="animation:k0 1.5s step-end infinite"/><rect x="350" y="200" width="50" height="50" fill="#000000" style="animation:k4 1.5s step-end infinite"/><rect x="400" y="200" width="50" height="50" fill="none" style="animation:k0 1.5s step-end infinite"/><rect x="550" y="200" width="50" height="50" fill="none" style="animation:k3 1.5s step-end infinite"/><rect x="600" y="200" width="50" height="50" fill="none" style="animation:k2 1.5s step-end infinite"/><rect x="650" y="200" width="50" height="50" fill="none" style="animation:k3 1.5s step-end infinite"/><rect x="700" y="200" width="50" height="50" fill="none" style="animation:k2 1.5s step-end infinite"/><rect x="0" y="250" width="50" height="50" fill="#000000" style="animation:k5 1.5s step-end infinite"/><rect x="50" y="250" width="50" height="50" fill="none" style="animation:k0 1.5s step-end infinite"/><rect x="100" y="250" width="50" height="50" fill="#000000" style="animation:k1 1.5s step-end infinite"/><rect x="150" y="250" width="50" height="50" fill="none" style="animation:k6 1.5s step-end infinite"/><rect x="250" y="250" width="50" height="50" fill="none" style="animation:k0 1.5s step-end infinite"/><rect x="300" y="250" width="50" height="50" fill="#000000" style="animation:k4 1.5s step-end infinite"/><rect x="350" y="250" width="50" height="50" fill="#eab308"/><rect x="400" y="250" width="50" height="50" fill="#000000" style="animation:k4 1.5s step-end infinite"/><rect x="450" y="250" width="50" height="50" fill="none" style="animation:k0 1.5s step-end infinite"/><rect x="550" y="250" width="50" height="50" fill="none" style="animation:k6 1.5s step-end infinite"/><rect x="600" y="250" width="50" height="50" fill="#000000" style="animation:k1 1.5s step-end infinite"/><rect x="650" y="250" width="50" height="50" fill="none" style="animation:k0 1.5s step-end infinite"/><rect x="700" y="250" width="50" height="50" fill="#000000" style="animation:k5 1.5s step-end infinite"/><rect x="50" y="300" width="50" height="50" fill="#000000" style="animation:k5 1.5s step-end infinite"/><rect x="100" y="300" width="50" height="50" fill="none" style="animation:k6 1.5s step-end infinite"/><rect x="200" y="300" width="50" height="50" fill="none" style="animation:k0 1.5s step-end infinite"/><rect x="250" y="300" width="50" height="50" fill="#000000" style="animation:k4 1.5s step-end infinite"/><rect x="300" y="300" width="50" height="50" fill="#eab308"/><rect x="350" y="300" width="50" height="50" fill="#eab308" style="animation:k7 1.5s step-end infinite"/><rect x="400" y="300" width="50" height="50" fill="#eab308"/><rect x="450" y="300" width="50" height="50" fill="#000000" style="animation:k4 1.5s step-end infinite"/><rect x="500" y="300" width="50" height="50" fill="none" style="animation:k0 1.5s step-end infinite"/><rect x="600" y="300" width="50" height="50" fill="none" style="animation:k6 1.5s step-end infinite"/><rect x="650" y="300" width="50" height="50" fill="#000000" style="animation:k5 1.5s step-end infinite"/><rect x="150" y="350" width="50" height="50" fill="none" style="animation:k0 1.5s step-end infinite"/><rect x="200" y="350" width="50" height="50" fill="#000000" style="animation:k4 1.5s step-end infinite"/><rect x="250" y="350" width="50" height="50" fill="#eab308"/><rect x="300" y="350" width="50" height="50" fill="#eab308" style="animation:k7 1.5s step-end infinite"/><rect x="350" y="350" width="50" height="50" fill="#f8fafc" style="animation:k8 1.5s step-end infinite"/><rect x="400" y="350" width="50" height="50" fill="#eab308" style="animation:k7 1.5s step-end infinite"/><rect x="450" y="350" width="50" height="50" fill="#eab308"/><rect x="500" y="350" width="50" height="50" fill="#000000" style="animation:k4 1.5s step-end infinite"/><rect x="550" y="350" width="50" height="50" fill="none" style="animation:k0 1.5s step-end infinite"/><rect x="100" y="400" width="50" height="50" fill="none" style="animation:k0 1.5s step-end infinite"/><rect x="150" y="400" width="50" height="50" fill="#000000" style="animation:k4 1.5s step-end infinite"/><rect x="200" y="400" width="50" height="50" fill="#eab308"/><rect x="250" y="400" width="50" height="50" fill="#eab308"/><rect x="300" y="400" width="50" height="50" fill="#f8fafc" style="animation:k9 1.5s step-end infinite"/><rect x="350" y="400" width="50" height="50" fill="#000000" style="animation:k10 1.5s step-end infinite"/><rect x="400" y="400" width="50" height="50" fill="#f8fafc" style="animation:k9 1.5s step-end infinite"/><rect x="450" y="400" width="50" height="50" fill="#eab308"/><rect x="500" y="400" width="50" height="50" fill="#eab308"/><rect x="550" y="400" width="50" height="50" fill="#000000" style="animation:k4 1.5s step-end infinite"/><rect x="600" y="400" width="50" height="50" fill="none" style="animation:k0 1.5s step-end infinite"/><rect x="50" y="450" width="50" height="50" fill="none" style="animation:k0 1.5s step-end infinite"/><rect x="100" y="450" width="50" height="50" fill="#000000" style="animation:k4 1.5s step-end infinite"/><rect x="150" y="450" width="50" height="50" fill="#eab308"/><rect x="200" y="450" width="50" height="50" fill="#eab308"/><rect x="250" y="450" width="50" height="50" fill="#eab308"/><rect x="300" y="450" width="50" height="50" fill="#eab308"/><rect x="350" y="450" width="50" height="50" fill="#f8fafc" style="animation:k9 1.5s step-end infinite"/><rect x="400" y="450" width="50" height="50" fill="#eab308"/><rect x="450" y="450" width="50" height="50" fill="#eab308"/><rect x="500" y="450" width="50" height="50" fill="#eab308"/><rect x="550" y="450" width="50" height="50" fill="#eab308"/><rect x="600" y="450" width="50" height="50" fill="#000000" style="animation:k4 1.5s step-end infinite"/><rect x="650" y="450" width="50" height="50" fill="none" style="animation:k0 1.5s step-end infinite"/><rect x="50" y="500" width="50" height="50" fill="#000000" style="animation:k1 1.5s step-end infinite"/><rect x="100" y="500" width="50" height="50" fill="#eab308" style="animation:k11 1.5s step-end infinite"/><rect x="150" y="500" width="50" height="50" fill="#eab308" style="animation:k11 1.5s step-end infinite"/><rect x="200" y="500" width="50" height="50" fill="#eab308" style="animation:k11 1.5s step-end infinite"/><rect x="250" y="500" width="50" height="50" fill="#eab308" style="animation:k11 1.5s step-end infinite"/><rect x="300" y="500" width="50" height="50" fill="#eab308" style="animation:k11 1.5s step-end infinite"/><rect x="350" y="500" width="50" height="50" fill="#eab308" style="animation:k11 1.5s step-end infinite"/><rect x="400" y="500" width="50" height="50" fill="#eab308" style="animation:k11 1.5s step-end infinite"/><rect x="450" y="500" width="50" height="50" fill="#eab308" style="animation:k11 1.5s step-end infinite"/><rect x="500" y="500" width="50" height="50" fill="#eab308" style="animation:k11 1.5s step-end infinite"/><rect x="550" y="500" width="50" height="50" fill="#eab308" style="animation:k11 1.5s step-end infinite"/><rect x="600" y="500" width="50" height="50" fill="#eab308" style="animation:k11 1.5s step-end infinite"/><rect x="650" y="500" width="50" height="50" fill="#000000" style="animation:k1 1.5s step-end infinite"/><rect x="100" y="550" width="50" height="50" fill="#000000" style="animation:k1 1.5s step-end infinite"/><rect x="150" y="550" width="50" height="50" fill="#000000" style="animation:k1 1.5s step-end infinite"/><rect x="200" y="550" width="50" height="50" fill="#000000" style="animation:k1 1.5s step-end infinite"/><rect x="250" y="550" width="50" height="50" fill="#000000"/><rect x="300" y="550" width="50" height="50" fill="#000000" style="animation:k1 1.5s step-end infinite"/><rect x="350" y="550" width="50" height="50" fill="#000000" style="animation:k1 1.5s step-end infinite"/><rect x="400" y="550" width="50" height="50" fill="#000000" style="animation:k1 1.5s step-end infinite"/><rect x="450" y="550" width="50" height="50" fill="#000000"/><rect x="500" y="550" width="50" height="50" fill="#000000" style="animation:k1 1.5s step-end infinite"/><rect x="550" y="550" width="50" height="50" fill="#000000" style="animation:k1 1.5s step-end infinite"/><rect x="600" y="550" width="50" height="50" fill="#000000" style="animation:k1 1.5s step-end infinite"/><rect x="250" y="600" width="50" height="50" fill="none" style="animation:k0 1.5s step-end infinite"/><rect x="450" y="600" width="50" height="50" fill="none" style="animation:k0 1.5s step-end infinite"/><rect x="250" y="650" width="50" height="50" fill="#000000"/><rect x="450" y="650" width="50" height="50" fill="#000000"/><rect x="200" y="700" width="50" height="50" fill="#000000" style="animation:k1 1.5s step-end infinite"/><rect x="250" y="700" width="50" height="50" fill="#000000" style="animation:k1 1.5s step-end infinite"/><rect x="450" y="700" width="50" height="50" fill="#000000" style="animation:k1 1.5s step-end infinite"/><rect x="500" y="700" width="50" height="50" fill="#000000" style="animation:k1 1.5s step-end infinite"/></svg>