<svg xmlns="http://www.w3.org/2000/svg" viewBox="0 0 160 160" width="160" height="160"><style>@keyframes k0{0%{fill:#000000}12.5%{fill:none}25%{fill:#000000}37.5%{fill:none}50%{fill:#000000}62.5%{fill:none}75%{fill:#000000}87.5%{fill:none}100%{fill:none}}@keyframes k1{0%{fill:#3b82f6}12.5%{fill:#000000}25%{fill:#3b82f6}37.5%{fill:#000000}50%{fill:#3b82f6}62.5%{fill:#000000}75%{fill:#3b82f6}87.5%{fill:#000000}100%{fill:#000000}}@keyframes k2{0%{fill:#000000}12.5%{fill:#3b82f6}25%{fill:#000000}37.5%{fill:#3b82f6}75%{fill:#000000}87.5%{fill:#3b82f6}100%{fill:#3b82f6}}@keyframes k3{0%{fill:#f8fafc}12.5%{fill:#000000}25%{fill:#f8fafc}37.5%{fill:#000000}56.25%{fill:#3b82f6}68.75%{fill:#000000}75%{fill:#f8fafc}87.5%{fill:#000000}100%{fill:#000000}}@keyframes k4{0%{fill:#f8fafc}56.25%{fill:#000000}68.75%{fill:#f8fafc}100%{fill:#f8fafc}}@keyframes k5{0%{fill:#000000}62.5%{fill:#3b82f6}68.75%{fill:#000000}100%{fill:#000000}}@keyframes k6{0%{fill:#3b82f6}12.5%{fill:#f8fafc}25%{fill:#3b82f6}37.5%{fill:#f8fafc}50%{fill:#3b82f6}62.5%{fill:#f8fafc}75%{fill:#3b82f6}87.5%{fill:#f8fafc}100%{fill:#f8fafc}}@keyframes k7{0%{fill:#fffac0}12.5%{fill:#3b82f6}25%{fill:#fffac0}37.5%{fill:#3b82f6}50%{fill:#fffac0}62.5%{fill:#3b82f6}75%{fill:#fffac0}87.5%{fill:#3b82f6}100%{fill:#3b82f6}}@keyframes k8{0%{fill:none}12.5%{fill:#000000}25%{fill:none}37.5%{fill:#000000}50%{fill:none}62.5%{fill:#000000}75%{fill:none}87.5%{fill:#000000}100%{fill:#000000}}@keyframes k9{0%{fill:#000000}12.5%{fill:#3b82f6}25%{fill:#000000}37.5%{fill:#3b82f6}50%{fill:#000000}62.5%{fill:#3b82f6}75%{fill:#000000}87.5%{fill:#3b82f6}100%{fill:#3b82f6}}@keyframes k10{0%{fill:#000000}12.5%{fill:#fffac0}25%{fill:#000000}37.5%{fill:#fffac0}50%{fill:#000000}62.5%{fill:#fffac0}75%{fill:#000000}87.5%{fill:#fffac0}100%{fill:#fffac0}}</style><rect x="20" y="30" width="10" height="10" fill="#000000" style="animation:k0 2s step-end infinite"/><rect x="30" y="30" width="10" height="10" fill="#000000" style="animation:k0 2s step-end infinite"/><rect x="120" y="30" width="10" height="10" fill="#000000" style="animation:k0 2s step-end infinite"/><rect x="130" y="30" width="10" height="10" fill="#000000" style="animation:k0 2s step-end infinite"/><rect x="20" y="40" width="10" height="10" fill="#000000"/><rect x="30" y="40" width="10" height="10" fill="#3b82f6" style="animation:k1 2s step-end infinite"/><rect x="40" y="40" width="10" height="10" fill="#000000" style="animation:k0 2s step-end infinite"/><rect x="50" y="40" width="10" height="10" fill="#000000" style="animation:k0 2s step-end infinite"/><rect x="60" y="40" width="10" height="10" fill="#000000" style="animation:k0 2s step-end infinite"/><rect x="70" y="40" width="10" height="10" fill="#000000" style="animation:k0 2s step-end infinite"/><rect x="80" y="40" width="10" height="10" fill="#000000" style="animation:k0 2s step-end infinite"/><rect x="90" y="40" width="10" height="10" fill="#000000" style="animation:k0 2s step-end infinite"/><rect x="100" y="40" width="10" height="10" fill="#000000" style="animation:k0 2s step-end infinite"/><rect x="110" y="40" width="10" height="10" fill="#000000" style="animation:k0 2s step-end infinite"/><rect x="120" y="40" width="10" height="10" fill="#3b82f6" style="animation:k1 2s step-end infinite"/><rect x="130" y="40" width="10" height="10" fill="#000000"/><rect x="20" y="50" width="10" height="10" fill="#000000"/><rect x="30" y="50" width="10" height="10" fill="#3b82f6"/><rect x="40" y="50" width="10" height="10" fill="#3b82f6" style="animation:k1 2s step-end infinite"/><rect x="50" y="50" width="10" height="10" fill="#3b82f6" style="animation:k1 2s step-end infinite"/><rect x="60" y="50" width="10" height="10" fill="#3b82f6" style="animation:k1 2s step-end infinite"/><rect x="70" y="50" width="10" height="10" fill="#3b82f6" style="animation:k1 2s step-end infinite"/><rect x="80" y="50" width="10" height="10" fill="#3b82f6" style="animation:k1 2s step-end infinite"/><rect x="90" y="50" width="10" height="10" fill="#3b82f6" style="animation:k1 2s step-end infinite"/><rect x="100" y="50" width="10" height="10" fill="#3b82f6" style="animation:k1 2s step-end infinite"/><rect x="110" y="50" width="10" height="10" fill="#3b82f6" style="animation:k1 2s step-end infinite"/><rect x="120" y="50" width="10" height="10" fill="#3b82f6"/><rect x="130" y="50" width="10" height="10" fill="#000000"/><rect x="20" y="60" width="10" height="10" fill="#000000"/><rect x="30" y="60" width="10" height="10" fill="#3b82f6"/><rect x="40" y="60" width="10" height="10" fill="#3b82f6"/><rect x="50" y="60" width="10" height="10" fill="#000000" style="animation:k2 2s step-end infinite"/><rect x="60" y="60" width="10" height="10" fill="#3b82f6"/><rect x="70" y="60" width="10" height="10" fill="#3b82f6"/><rect x="80" y="60" width="10" height="10" fill="#3b82f6"/><rect x="90" y="60" width="10" height="10" fill="#3b82f6"/><rect x="100" y="60" width="10" height="10" fill="#000000" style="animation:k2 2s step-end infinite"/><rect x="110" y="60" width="10" height="10" fill="#3b82f6"/><rect x="120" y="60" width="10" height="10" fill="#3b82f6"/><rect x="130" y="60" width="10" height="10" fill="#000000"/><rect x="20" y="70" width="10" height="10" fill="#000000"/><rect x="30" y="70" width="10" height="10" fill="#3b82f6"/><rect x="40" y="70" width="10" height="10" fill="#3b82f6"/><rect x="50" y="70" width="10" height="10" fill="#f8fafc" style="animation:k3 2s step-end infinite"/><rect x="60" y="70" width="10" height="10" fill="#000000" style="animation:k2 2s step-end infinite"/><rect x="70" y="70" width="10" height="10" fill="#3b82f6"/><rect x="80" y="70" width="10" height="10" fill="#3b82f6"/><rect x="90" y="70" width="10" height="10" fill="#000000" style="animation:k2 2s step-end infinite"/><rect x="100" y="70" width="10" height="10" fill="#f8fafc" style="animation:k3 2s step-end infinite"/><rect x="110" y="70" width="10" height="10" fill="#3b82f6"/><rect x="120" y="70" width="10" height="10" fill="#3b82f6"/><rect x="130" y="70" width="10" height="10" fill="#000000"/><rect x="20" y="80" width="10" height="10" fill="#000000"/><rect x="30" y="80" width="10" height="10" fill="#3b82f6"/><rect x="40" y="80" width="10" height="10" fill="#3b82f6"/><rect x="50" y="80" width="10" height="10" fill="#f8fafc" style="animation:k4 2s step-end infinite"/><rect x="60" y="80" width="10" height="10" fill="#000000" style="animation:k5 2s step-end infinite"/><rect x="70" y="80" width="10" height="10" fill="#3b82f6"/><rect x="80" y="80" width="10" height="10" fill="#3b82f6"/><rect x="90" y="80" width="10" height="10" fill="#000000" style="animation:k5 2s step-end infinite"/><rect x="100" y="80" width="10" height="10" fill="#f8fafc" style="animation:k4 2s step-end infinite"/><rect x="110" y="80" width="10" height="10" fill="#3b82f6"/><rect x="120" y="80" width="10" height="10" fill="#3b82f6"/><rect x="130" y="80" width="10" height="10" fill="#000000"/><rect x="20" y="90" width="10" height="10" fill="#000000"/><rect x="30" y="90" width="10" height="10" fill="#3b82f6"/><rect x="40" y="90" width="10" height="10" fill="#3b82f6"/><rect x="50" y="90" width="10" height="10" fill="#3b82f6" style="animation:k6 2s step-end infinite"/><rect x="60" y="90" width="10" height="10" fill="#3b82f6" style="animation:k1 2s step-end infinite"/><rect x="70" y="90" width="10" height="10" fill="#3b82f6"/><rect x="80" y="90" width="10" height="10" fill="#3b82f6"/><rect x="90" y="90" width="10" height="10" fill="#3b82f6" style="animation:k1 2s step-end infinite"/><rect x="100" y="90" width="10" height="10" fill="#3b82f6" style="animation:k6 2s step-end infinite"/><rect x="110" y="90" width="10" height="10" fill="#3b82f6"/><rect x="120" y="90" width="10" height="10" fill="#3b82f6"/><rect x="130" y="90" width="10" height="10" fill="#000000"/><rect x="20" y="100" width="10" height="10" fill="#000000"/><rect x="30" y="100" width="10" height="10" fill="#3b82f6"/><rect x="40" y="100" width="10" height="10" fill="#3b82f6"/><rect x="50" y="100" width="10" height="10" fill="#fffac0" style="animation:k7 2s step-end infinite"/><rect x="60" y="100" width="10" height="10" fill="#fffac0" style="animation:k7 2s step-end infinite"/><rect x="70" y="100" width="10" height="10" fill="#fffac0" style="animation:k7 2s step-end infinite"/><rect x="80" y="100" width="10" height="10" fill="#fffac0" style="animation:k7 2s step-end infinite"/><rect x="90" y="100" width="10" height="10" fill="#fffac0" style="animation:k7 2s step-end infinite"/><rect x="100" y="100" width="10" height="10" fill="#fffac0" style="animation:k7 2s step-end infinite"/><rect x="110" y="100" width="10" height="10" fill="#3b82f6"/><rect x="120" y="100" width="10" height="10" fill="#3b82f6"/><rect x="130" y="100" width="10" height="10" fill="#000000"/><rect x="20" y="110" width="10" height="10" fill="none" style="animation:k8 2s step-end infinite"/><rect x="30" y="110" width="10" height="10" fill="#000000" style="animation:k9 2s step-end infinite"/><rect x="40" y="110" width="10" height="10" fill="#fffac0" style="animation:k7 2s step-end infinite"/><rect x="50" y="110" width="10" height="10" fill="#fffac0"/><rect x="60" y="110" width="10" height="10" fill="#fffac0"/><rect x="70" y="110" width="10" height="10" fill="#fffac0"/><rect x="80" y="110" width="10" height="10" fill="#fffac0"/><rect x="90" y="110" width="10" height="10" fill="#fffac0"/><rect x="100" y="110" width="10" height="10" fill="#fffac0"/><rect x="110" y="110" width="10" height="10" fill="#fffac0" style="animation:k7 2s step-end infinite"/><rect x="120" y="110" width="10" height="10" fill="#000000" style="animation:k9 2s step-end infinite"/><rect x="130" y="110" width="10" height="10" fill="none" style="animation:k8 2s step-end infinite"/><rect x="30" y="120" width="10" height="10" fill="none" style="animation:k8 2s step-end infinite"/><rect x="40" y="120" width="10" height="10" fill="#000000" style="animation:k10 2s step-end infinite"/><rect x="50" y="120" width="10" height="10" fill="#000000" style="animation:k10 2s step-end infinite"/><rect x="60" y="120" width="10" height="10" fill="#000000" style="animation:k10 2s step-end infinite"/><rect x="70" y="120" width="10" height="10" fill="#000000" style="animation:k10 2s step-end infinite"/><rect x="80" y="120" width="10" height="10" fill="#000000" style="animation:k10 2s step-end infinite"/><rect x="90" y="120" width="10" height="10" fill="#000000" style="animation:k10 2s step-end infinite"/><rect x="100" y="120" width="10" height="10" fill="#000000" style="animation:k10 2s step-end infinite"/><rect x="110" y="120" width="10" height="10" fill="#000000" style="animation:k10 2s step-end infinite"/><rect x="120" y="120" width="10" height="10" fill="none" style="animation:k8 2s step-end infinite"/><rect x="40" y="130" width="10" height="10" fill="none" style="animation:k8 2s step-end infinite"/><rect x="50" y="130" width="10" height="10" fill="none" style="animation:k8 2s step-end infinite"/><rect x="60" y="130" width="10" height="10" fill="none" style="animation:k8 2s step-end infinite"/><rect x="70" y="130" width="10" height="10" fill="none" style="animation:k8 2s step-end infinite"/><rect x="80" y="130" width="10" height="10" fill="none" style="animation:k8 2s step-end infinite"/><rect x="90" y="130" width="10" height="10" fill="none" style="animation:k8 2s step-end infinite"/><rect x="100" y="130" width="10" height="10" fill="none" style="animation:k8 2s step-end infinite"/><rect x="110" y="130" width="10" height="10" fill="none" style="animation:k8 2s step-end infinite"/></svg>