<svg xmlns="http://www.w3.org/2000/svg" viewBox="0 0 800 800" width="800" height="800" shape-rendering="crispEdges"><style>@keyframes k0{0%{fill:#000000}12.5%{fill:none}25%{fill:#000000}37.5%{fill:none}50%{fill:#000000}62.5%{fill:none}75%{fill:#000000}87.5%{fill:none}100%{fill:none}}@keyframes k1{0%{fill:#3b82f6}12.5%{fill:#000000}25%{fill:#3b82f6}37.5%{fill:#000000}50%{fill:#3b82f6}62.5%{fill:#000000}75%{fill:#3b82f6}87.5%{fill:#000000}100%{fill:#000000}}@keyframes k2{0%{fill:#000000}12.5%{fill:#3b82f6}25%{fill:#000000}37.5%{fill:#3b82f6}75%{fill:#000000}87.5%{fill:#3b82f6}100%{fill:#3b82f6}}@keyframes k3{0%{fill:#f8fafc}12.5%{fill:#000000}25%{fill:#f8fafc}37.5%{fill:#000000}56.25%{fill:#3b82f6}68.75%{fill:#000000}75%{fill:#f8fafc}87.5%{fill:#000000}100%{fill:#000000}}@keyframes k4{0%{fill:#f8fafc}56.25%{fill:#000000}68.75%{fill:#f8fafc}100%{fill:#f8fafc}}@keyframes k5{0%{fill:#000000}62.5%{fill:#3b82f6}68.75%{fill:#000000}100%{fill:#000000}}@keyframes k6{0%{fill:#3b82f6}12.5%{fill:#f8fafc}25%{fill:#3b82f6}37.5%{fill:#f8fafc}50%{fill:#3b82f6}62.5%{fill:#f8fafc}75%{fill:#3b82f6}87.5%{fill:#f8fafc}100%{fill:#f8fafc}}@keyframes k7{0%{fill:#fffac0}12.5%{fill:#3b82f6}25%{fill:#fffac0}37.5%{fill:#3b82f6}50%{fill:#fffac0}62.5%{fill:#3b82f6}75%{fill:#fffac0}87.5%{fill:#3b82f6}100%{fill:#3b82f6}}@keyframes k8{0%{fill:none}12.5%{fill:#000000}25%{fill:none}37.5%{fill:#000000}50%{fill:none}62.5%{fill:#000000}75%{fill:none}87.5%{fill:#000000}100%{fill:#000000}}@keyframes k9{0%{fill:#000000}12.5%{fill:#3b82f6}25%{fill:#000000}37.5%{fill:#3b82f6}50%{fill:#000000}62.5%{fill:#3b82f6}75%{fill:#000000}87.5%{fill:#3b82f6}100%{fill:#3b82f6}}@keyframes k10{0%{fill:#000000}12.5%{fill:#fffac0}25%{fill:#000000}37.5%{fill:#fffac0}50%{fill:#000000}62.5%{fill:#fffac0}75%{fill:#000000}87.5%{fill:#fffac0}100%{fill:#fffac0}}</style><rect x="100" y="150" width="50" height="50" fill="#000000" style="animation:k0 2s step-end infinite"/><rect x="150" y="150" width="50" height="50" fill="#000000" style="animation:k0 2s step-end infinite"/><rect x="600" y="150" width="50" height="50" fill="#000000" style="animation:k0 2s step-end infinite"/><rect x="650" y="150" width="50" height="50" fill="#000000" style="animation:k0 2s step-end infinite"/><rect x="100" y="200" width="50" height="50" fill="#000000"/><rect x="150" y="200" width="50" height="50" fill="#3b82f6" style="animation:k1 2s step-end infinite"/><rect x="200" y="200" width="50" height="50" fill="#000000" style="animation:k0 2s step-end infinite"/><rect x="250" y="200" width="50" height="50" fill="#000000" style="animation:k0 2s step-end infinite"/><rect x="300" y="200" width="50" height="50" fill="#000000" style="animation:k0 2s step-end infinite"/><rect x="350" y="200" width="50" height="50" fill="#000000" style="animation:k0 2s step-end infinite"/><rect x="400" y="200" width="50" height="50" fill="#000000" style="animation:k0 2s step-end infinite"/><rect x="450" y="200" width="50" height="50" fill="#000000" style="animation:k0 2s step-end infinite"/><rect x="500" y="200" width="50" height="50" fill="#000000" style="animation:k0 2s step-end infinite"/><rect x="550" y="200" width="50" height="50" fill="#000000" style="animation:k0 2s step-end infinite"/><rect x="600" y="200" width="50" height="50" fill="#3b82f6" style="animation:k1 2s step-end infinite"/><rect x="650" y="200" width="50" height="50" fill="#000000"/><rect x="100" y="250" width="50" height="50" fill="#000000"/><rect x="150" y="250" width="50" height="50" fill="#3b82f6"/><rect x="200" y="250" width="50" height="50" fill="#3b82f6" style="animation:k1 2s step-end infinite"/><rect x="250" y="250" width="50" height="50" fill="#3b82f6" style="animation:k1 2s step-end infinite"/><rect x="300" y="250" width="50" height="50" fill="#3b82f6" style="animation:k1 2s step-end infinite"/><rect x="350" y="250" width="50" height="50" fill="#3b82f6" style="animation:k1 2s step-end infinite"/><rect x="400" y="250" width="50" height="50" fill="#3b82f6" style="animation:k1 2s step-end infinite"/><rect x="450" y="250" width="50" height="50" fill="#3b82f6" style="animation:k1 2s step-end infinite"/><rect x="500" y="250" width="50" height="50" fill="#3b82f6" style="animation:k1 2s step-end infinite"/><rect x="550" y="250" width="50" height="50" fill="#3b82f6" style="animation:k1 2s step-end infinite"/><rect x="600" y="250" width="50" height="50" fill="#3b82f6"/><rect x="650" y="250" width="50" height="50" fill="#000000"/><rect x="100" y="300" width="50" height="50" fill="#000000"/><rect x="150" y="300" width="50" height="50" fill="#3b82f6"/><rect x="200" y="300" width="50" height="50" fill="#3b82f6"/><rect x="250" y="300" width="50" height="50" fill="#000000" style="animation:k2 2s step-end infinite"/><rect x="300" y="300" width="50" height="50" fill="#3b82f6"/><rect x="350" y="300" width="50" height="50" fill="#3b82f6"/><rect x="400" y="300" width="50" height="50" fill="#3b82f6"/><rect x="450" y="300" width="50" height="50" fill="#3b82f6"/><rect x="500" y="300" width="50" height="50" fill="#000000" style="animation:k2 2s step-end infinite"/><rect x="550" y="300" width="50" height="50" fill="#3b82f6"/><rect x="600" y="300" width="50" height="50" fill="#3b82f6"/><rect x="650" y="300" width="50" height="50" fill="#000000"/><rect x="100" y="350" width="50" height="50" fill="#000000"/><rect x="150" y="350" width="50" height="50" fill="#3b82f6"/><rect x="200" y="350" width="50" height="50" fill="#3b82f6"/><rect x="250" y="350" width="50" height="50" fill="#f8fafc" style="animation:k3 2s step-end infinite"/><rect x="300" y="350" width="50" height="50" fill="#000000" style="animation:k2 2s step-end infinite"/><rect x="350" y="350" width="50" height="50" fill="#3b82f6"/><rect x="400" y="350" width="50" height="50" fill="#3b82f6"/><rect x="450" y="350" width="50" height="50" fill="#000000" style="animation:k2 2s step-end infinite"/><rect x="500" y="350" width="50" height="50" fill="#f8fafc" style="animation:k3 2s step-end infinite"/><rect x="550" y="350" width="50" height="50" fill="#3b82f6"/><rect x="600" y="350" width="50" height="50" fill="#3b82f6"/><rect x="650" y="350" width="50" height="50" fill="#000000"/><rect x="100" y="400" width="50" height="50" fill="#000000"/><rect x="150" y="400" width="50" height="50" fill="#3b82f6"/><rect x="200" y="400" width="50" height="50" fill="#3b82f6"/><rect x="250" y="400" width="50" height="50" fill="#f8fafc" style="animation:k4 2s step-end infinite"/><rect x="300" y="400" width="50" height="50" fill="#000000" style="animation:k5 2s step-end infinite"/><rect x="350" y="400" width="50" height="50" fill="#3b82f6"/><rect x="400" y="400" width="50" height="50" fill="#3b82f6"/><rect x="450" y="400" width="50" height="50" fill="#000000" style="animation:k5 2s step-end infinite"/><rect x="500" y="400" width="50" height="50" fill="#f8fafc" style="animation:k4 2s step-end infinite"/><rect x="550" y="400" width="50" height="50" fill="#3b82f6"/><rect x="600" y="400" width="50" height="50" fill="#3b82f6"/><rect x="650" y="400" width="50" height="50" fill="#000000"/><rect x="100" y="450" width="50" height="50" fill="#000000"/><rect x="150" y="450" width="50" height="50" fill="#3b82f6"/><rect x="200" y="450" width="50" height="50" fill="#3b82f6"/><rect x="250" y="450" width="50" height="50" fill="#3b82f6" style="animation:k6 2s step-end infinite"/><rect x="300" y="450" width="50" height="50" fill="#3b82f6" style="animation:k1 2s step-end infinite"/><rect x="350" y="450" width="50" height="50" fill="#3b82f6"/><rect x="400" y="450" width="50" height="50" fill="#3b82f6"/><rect x="450" y="450" width="50" height="50" fill="#3b82f6" style="animation:k1 2s step-end infinite"/><rect x="500" y="450" width="50" height="50" fill="#3b82f6" style="animation:k6 2s step-end infinite"/><rect x="550" y="450" width="50" height="50" fill="#3b82f6"/><rect x="600" y="450" width="50" height="50" fill="#3b82f6"/><rect x="650" y="450" width="50" height="50" fill="#000000"/><rect x="100" y="500" width="50" height="50" fill="#000000"/><rect x="150" y="500" width="50" height="50" fill="#3b82f6"/><rect x="200" y="500" width="50" height="50" fill="#3b82f6"/><rect x="250" y="500" width="50" height="50" fill="#fffac0" style="animation:k7 2s step-end infinite"/><rect x="300" y="500" width="50" height="50" fill="#fffac0" style="animation:k7 2s step-end infinite"/><rect x="350" y="500" width="50" height="50" fill="#fffac0" style="animation:k7 2s step-end infinite"/><rect x="400" y="500" width="50" height="50" fill="#fffac0" style="animation:k7 2s step-end infinite"/><rect x="450" y="500" width="50" height="50" fill="#fffac0" style="animation:k7 2s step-end infinite"/><rect x="500" y="500" width="50" height="50" fill="#fffac0" style="animation:k7 2s step-end infinite"/><rect x="550" y="500" width="50" height="50" fill="#3b82f6"/><rect x="600" y="500" width="50" height="50" fill="#3b82f6"/><rect x="650" y="500" width="50" height="50" fill="#000000"/><rect x="100" y="550" width="50" height="50" fill="none" style="animation:k8 2s step-end infinite"/><rect x="150" y="550" width="50" height="50" fill="#000000" style="animation:k9 2s step-end infinite"/><rect x="200" y="550" width="50" height="50" fill="#fffac0" style="animation:k7 2s step-end infinite"/><rect x="250" y="550" width="50" height="50" fill="#fffac0"/><rect x="300" y="550" width="50" height="50" fill="#fffac0"/><rect x="350" y="550" width="50" height="50" fill="#fffac0"/><rect x="400" y="550" width="50" height="50" fill="#fffac0"/><rect x="450" y="550" width="50" height="50" fill="#fffac0"/><rect x="500" y="550" width="50" height="50" fill="#fffac0"/><rect x="550" y="550" width="50" height="50" fill="#fffac0" style="animation:k7 2s step-end infinite"/><rect x="600" y="550" width="50" height="50" fill="#000000" style="animation:k9 2s step-end infinite"/><rect x="650" y="550" width="50" height="50" fill="none" style="animation:k8 2s step-end infinite"/><rect x="150" y="600" width="50" height="50" fill="none" style="animation:k8 2s step-end infinite"/><rect x="200" y="600" width="50" height="50" fill="#000000" style="animation:k10 2s step-end infinite"/><rect x="250" y="600" width="50" height="50" fill="#000000" style="animation:k10 2s step-end infinite"/><rect x="300" y="600" width="50" height="50" fill="#000000" style="animation:k10 2s step-end infinite"/><rect x="350" y="600" width="50" height="50" fill="#000000" style="animation:k10 2s step-end infinite"/><rect x="400" y="600" width="50" height="50" fill="#000000" style="animation:k10 2s step-end infinite"/><rect x="450" y="600" width="50" height="50" fill="#000000" style="animation:k10 2s step-end infinite"/><rect x="500" y="600" width="50" height="50" fill="#000000" style="animation:k10 2s step-end infinite"/><rect x="550" y="600" width="50" height="50" fill="#000000" style="animation:k10 2s step-end infinite"/><rect x="600" y="600" width="50" height="50" fill="none" style="animation:k8 2s step-end infinite"/><rect x="200" y="650" width="50" height="50" fill="none" style="animation:k8 2s step-end infinite"/><rect x="250" y="650" width="50" height="50" fill="none" style="animation:k8 2s step-end infinite"/><rect x="300" y="650" width="50" height="50" fill="none" style="animation:k8 2s step-end infinite"/><rect x="350" y="650" width="50" height="50" fill="none" style="animation:k8 2s step-end infinite"/><rect x="400" y="650" width="50" height="50" fill="none" style="animation:k8 2s step-end infinite"/><rect x="450" y="650" width="50" height="50" fill="none" style="animation:k8 2s step-end infinite"/><rect x="500" y="650" width="50" height="50" fill="none" style="animation:k8 2s step-end infinite"/><rect x="550" y="650" width="50" height="50" fill="none" style="animation:k8 2s step-end infinite"/></svg>