<svg xmlns="http://www.w3.org/2000/svg" viewBox="0 0 630 630" width="630" height="630"><style>@keyframes k0{0%{fill:#3b82f6}37.5%{fill:#1e293b}62.5%{fill:#1e3a8a}100%{fill:#1e3a8a}}@keyframes k1{0%{fill:#1e3a8a}25%{fill:#1e293b}50%{fill:#1e3a8a}62.5%{fill:#3b82f6}75%{fill:#1e3a8a}100%{fill:#1e3a8a}}@keyframes k2{0%{fill:#1e293b}12.5%{fill:#1e3a8a}50%{fill:#3b82f6}62.5%{fill:#1e293b}87.5%{fill:#3b82f6}100%{fill:#3b82f6}}@keyframes k3{0%{fill:#1e3a8a}12.5%{fill:#1e293b}37.5%{fill:#3b82f6}50%{fill:#1e293b}62.5%{fill:#3b82f6}75%{fill:#1e293b}100%{fill:#1e293b}}@keyframes k4{0%{fill:#1e293b}12.5%{fill:#3b82f6}25%{fill:#1e3a8a}37.5%{fill:#1e293b}75%{fill:#3b82f6}100%{fill:#3b82f6}}@keyframes k5{0%{fill:#3b82f6}12.5%{fill:#1e293b}37.5%{fill:#1e3a8a}62.5%{fill:#1e293b}87.5%{fill:#1e3a8a}100%{fill:#1e3a8a}}@keyframes k6{0%{fill:#1e293b}25%{fill:#1e3a8a}75%{fill:#3b82f6}100%{fill:#3b82f6}}@keyframes k7{0%{fill:#3b82f6}62.5%{fill:#1e3a8a}100%{fill:#1e3a8a}}@keyframes k8{0%{fill:#1e3a8a}25%{fill:#3b82f6}87.5%{fill:#1e293b}100%{fill:#1e293b}}</style><circle cx="83" cy="83" r="25" fill="#3b82f6" style="animation:k0 1s step-end infinite"/><circle cx="141" cy="83" r="25" fill="#3b82f6" style="animation:k0 1s step-end infinite"/><circle cx="199" cy="83" r="25" fill="#3b82f6" style="animation:k0 1s step-end infinite"/><circle cx="257" cy="83" r="25" fill="#1e3a8a" style="animation:k1 1s step-end infinite"/><circle cx="315" cy="83" r="25" fill="#1e3a8a" style="animation:k1 1s step-end infinite"/><circle cx="373" cy="83" r="25" fill="#1e3a8a" style="animation:k1 1s step-end infinite"/><circle cx="431" cy="83" r="25" fill="#1e293b" style="animation:k2 1s step-end infinite"/><circle cx="489" cy="83" r="25" fill="#1e293b" style="animation:k2 1s step-end infinite"/><circle cx="547" cy="83" r="25" fill="#1e293b" style="animation:k2 1s step-end infinite"/><circle cx="83" cy="141" r="25" fill="#3b82f6" style="animation:k0 1s step-end infinite"/><circle cx="141" cy="141" r="25" fill="#3b82f6" style="animation:k0 1s step-end infinite"/><circle cx="199" cy="141" r="25" fill="#3b82f6" style="animation:k0 1s step-end infinite"/><circle cx="257" cy="141" r="25" fill="#1e3a8a" style="animation:k1 1s step-end infinite"/><circle cx="315" cy="141" r="25" fill="#1e3a8a" style="animation:k1 1s step-end infinite"/><circle cx="373" cy="141" r="25" fill="#1e3a8a" style="animation:k1 1s step-end infinite"/><circle cx="431" cy="141" r="25" fill="#1e293b" style="animation:k2 1s step-end infinite"/><circle cx="489" cy="141" r="25" fill="#1e293b" style="animation:k2 1s step-end infinite"/><circle cx="547" cy="141" r="25" fill="#1e293b" style="animation:k2 1s step-end infinite"/><circle cx="83" cy="199" r="25" fill="#3b82f6" style="animation:k0 1s step-end infinite"/><circle cx="141" cy="199" r="25" fill="#3b82f6" style="animation:k0 1s step-end infinite"/><circle cx="199" cy="199" r="25" fill="#3b82f6" style="animation:k0 1s step-end infinite"/><circle cx="257" cy="199" r="25" fill="#1e3a8a" style="animation:k1 1s step-end infinite"/><circle cx="315" cy="199" r="25" fill="#1e3a8a" style="animation:k1 1s step-end infinite"/><circle cx="373" cy="199" r="25" fill="#1e3a8a" style="animation:k1 1s step-end infinite"/><circle cx="431" cy="199" r="25" fill="#1e293b" style="animation:k2 1s step-end infinite"/><circle cx="489" cy="199" r="25" fill="#1e293b" style="animation:k2 1s step-end infinite"/><circle cx="547" cy="199" r="25" fill="#1e293b" style="animation:k2 1s step-end infinite"/><circle cx="83" cy="257" r="25" fill="#1e3a8a" style="animation:k3 1s step-end infinite"/><circle cx="141" cy="257" r="25" fill="#1e3a8a" style="animation:k3 1s step-end infinite"/><circle cx="199" cy="257" r="25" fill="#1e3a8a" style="animation:k3 1s step-end infinite"/><circle cx="257" cy="257" r="25" fill="#1e293b" style="animation:k4 1s step-end infinite"/><circle cx="315" cy="257" r="25" fill="#1e293b" style="animation:k4 1s step-end infinite"/><circle cx="373" cy="257" r="25" fill="#1e293b" style="animation:k4 1s step-end infinite"/><circle cx="431" cy="257" r="25" fill="#3b82f6" style="animation:k5 1s step-end infinite"/><circle cx="489" cy="257" r="25" fill="#3b82f6" style="animation:k5 1s step-end infinite"/><circle cx="547" cy="257" r="25" fill="#3b82f6" style="animation:k5 1s step-end infinite"/><circle cx="83" cy="315" r="25" fill="#1e3a8a" style="animation:k3 1s step-end infinite"/><circle cx="141" cy="315" r="25" fill="#1e3a8a" style="animation:k3 1s step-end infinite"/><circle cx="199" cy="315" r="25" fill="#1e3a8a" style="animation:k3 1s step-end infinite"/><circle cx="257" cy="315" r="25" fill="#1e293b" style="animation:k4 1s step-end infinite"/><circle cx="315" cy="315" r="25" fill="#1e293b" style="animation:k4 1s step-end infinite"/><circle cx="373" cy="315" r="25" fill="#1e293b" style="animation:k4 1s step-end infinite"/><circle cx="431" cy="315" r="25" fill="#3b82f6" style="animation:k5 1s step-end infinite"/><circle cx="489" cy="315" r="25" fill="#3b82f6" style="animation:k5 1s step-end infinite"/><circle cx="547" cy="315" r="25" fill="#3b82f6" style="animation:k5 1s step-end infinite"/><circle cx="83" cy="373" r="25" fill="#1e3a8a" style="animation:k3 1s step-end infinite"/><circle cx="141" cy="373" r="25" fill="#1e3a8a" style="animation:k3 1s step-end infinite"/><circle cx="199" cy="373" r="25" fill="#1e3a8a" style="animation:k3 1s step-end infinite"/><circle cx="257" cy="373" r="25" fill="#1e293b" style="animation:k4 1s step-end infinite"/><circle cx="315" cy="373" r="25" fill="#1e293b" style="animation:k4 1s step-end infinite"/><circle cx="373" cy="373" r="25" fill="#1e293b" style="animation:k4 1s step-end infinite"/><circle cx="431" cy="373" r="25" fill="#3b82f6" style="animation:k5 1s step-end infinite"/><circle cx="489" cy="373" r="25" fill="#3b82f6" style="animation:k5 1s step-end infinite"/><circle cx="547" cy="373" r="25" fill="#3b82f6" style="animation:k5 1s step-end infinite"/><circle cx="83" cy="431" r="25" fill="#1e293b" style="animation:k6 1s step-end infinite"/><circle cx="141" cy="431" r="25" fill="#1e293b" style="animation:k6 1s step-end infinite"/><circle cx="199" cy="431" r="25" fill="#1e293b" style="animation:k6 1s step-end infinite"/><circle cx="257" cy="431" r="25" fill="#3b82f6" style="animation:k7 1s step-end infinite"/><circle cx="315" cy="431" r="25" fill="#3b82f6" style="animation:k7 1s step-end infinite"/><circle cx="373" cy="431" r="25" fill="#3b82f6" style="animation:k7 1s step-end infinite"/><circle cx="431" cy="431" r="25" fill="#1e3a8a" style="animation:k8 1s step-end infinite"/><circle cx="489" cy="431" r="25" fill="#1e3a8a" style="animation:k8 1s step-end infinite"/><circle cx="547" cy="431" r="25" fill="#1e3a8a" style="animation:k8 1s step-end infinite"/><circle cx="83" cy="489" r="25" fill="#1e293b" style="animation:k6 1s step-end infinite"/><circle cx="141" cy="489" r="25" fill="#1e293b" style="animation:k6 1s step-end infinite"/><circle cx="199" cy="489" r="25" fill="#1e293b" style="animation:k6 1s step-end infinite"/><circle cx="257" cy="489" r="25" fill="#3b82f6" style="animation:k7 1s step-end infinite"/><circle cx="315" cy="489" r="25" fill="#3b82f6" style="animation:k7 1s step-end infinite"/><circle cx="373" cy="489" r="25" fill="#3b82f6" style="animation:k7 1s step-end infinite"/><circle cx="431" cy="489" r="25" fill="#1e3a8a" style="animation:k8 1s step-end infinite"/><circle cx="489" cy="489" r="25" fill="#1e3a8a" style="animation:k8 1s step-end infinite"/><circle cx="547" cy="489" r="25" fill="#1e3a8a" style="animation:k8 1s step-end infinite"/><circle cx="83" cy="547" r="25" fill="#1e293b" style="animation:k6 1s step-end infinite"/><circle cx="141" cy="547" r="25" fill="#1e293b" style="animation:k6 1s step-end infinite"/><circle cx="199" cy="547" r="25" fill="#1e293b" style="animation:k6 1s step-end infinite"/><circle cx="257" cy="547" r="25" fill="#3b82f6" style="animation:k7 1s step-end infinite"/><circle cx="315" cy="547" r="25" fill="#3b82f6" style="animation:k7 1s step-end infinite"/><circle cx="373" cy="547" r="25" fill="#3b82f6" style="animation:k7 1s step-end infinite"/><circle cx="431" cy="547" r="25" fill="#1e3a8a" style="animation:k8 1s step-end infinite"/><circle cx="489" cy="547" r="25" fill="#1e3a8a" style="animation:k8 1s step-end infinite"/><circle cx="547" cy="547" r="25" fill="#1e3a8a" style="animation:k8 1s step-end infinite"/></svg>