<svg xmlns="http://www.w3.org/2000/svg" viewBox="0 0 350 350" width="350" height="350"><style>@keyframes k0{0%{fill:#1e3a8a}8.3333%{fill:#1e3b8aab}16.6667%{fill:#1e3b8a7a}25%{fill:#1e3b8a54}33.3333%{fill:none}100%{fill:none}}@keyframes k1{0%{fill:none}8.3333%{fill:#1e3a8a}16.6667%{fill:#1e3b8aab}25%{fill:#1e3b8a7a}33.3333%{fill:#1e3b8a54}41.6667%{fill:none}100%{fill:none}}@keyframes k2{0%{fill:none}16.6667%{fill:#1e3a8a}25%{fill:#1e3b8aab}33.3333%{fill:#1e3b8a7a}41.6667%{fill:#1e3b8a54}50%{fill:none}100%{fill:none}}@keyframes k3{0%{fill:none}25%{fill:#1e3a8a}33.3333%{fill:#1e3b8aab}41.6667%{fill:#1e3b8a7a}50%{fill:#1e3b8a54}58.3333%{fill:none}100%{fill:none}}@keyframes k4{0%{fill:none}33.3333%{fill:#1e3a8a}41.6667%{fill:#1e3b8aab}50%{fill:#1e3b8a7a}58.3333%{fill:#1e3b8a54}66.6667%{fill:none}100%{fill:none}}@keyframes k5{0%{fill:none}41.6667%{fill:#1e3a8a}50%{fill:#1e3b8aab}58.3333%{fill:#1e3b8a7a}66.6667%{fill:#1e3b8a54}75%{fill:none}100%{fill:none}}@keyframes k6{0%{fill:none}50%{fill:#1e3a8a}58.3333%{fill:#1e3b8aab}66.6667%{fill:#1e3b8a7a}75%{fill:#1e3b8a54}83.3333%{fill:none}100%{fill:none}}</style><rect x="0" y="0" width="50" height="50" fill="#1e3a8a" style="animation:k0 1s step-end infinite"/><rect x="50" y="0" width="50" height="50" fill="#1e3a8a" style="animation:k0 1s step-end infinite"/><rect x="100" y="0" width="50" height="50" fill="#1e3a8a" style="animation:k0 1s step-end infinite"/><rect x="150" y="0" width="50" height="50" fill="#1e3a8a" style="animation:k0 1s step-end infinite"/><rect x="200" y="0" width="50" height="50" fill="#1e3a8a" style="animation:k0 1s step-end infinite"/><rect x="250" y="0" width="50" height="50" fill="#1e3a8a" style="animation:k0 1s step-end infinite"/><rect x="300" y="0" width="50" height="50" fill="#1e3a8a" style="animation:k0 1s step-end infinite"/><rect x="0" y="50" width="50" height="50" fill="none" style="animation:k1 1s step-end infinite"/><rect x="50" y="50" width="50" height="50" fill="none" style="animation:k1 1s step-end infinite"/><rect x="100" y="50" width="50" height="50" fill="none" style="animation:k1 1s step-end infinite"/><rect x="150" y="50" width="50" height="50" fill="none" style="animation:k1 1s step-end infinite"/><rect x="200" y="50" width="50" height="50" fill="none" style="animation:k1 1s step-end infinite"/><rect x="250" y="50" width="50" height="50" fill="none" style="animation:k1 1s step-end infinite"/><rect x="300" y="50" width="50" height="50" fill="none" style="animation:k1 1s step-end infinite"/><rect x="0" y="100" width="50" height="50" fill="none" style="animation:k2 1s step-end infinite"/><rect x="50" y="100" width="50" height="50" fill="none" style="animation:k2 1s step-end infinite"/><rect x="100" y="100" width="50" height="50" fill="none" style="animation:k2 1s step-end infinite"/><rect x="150" y="100" width="50" height="50" fill="none" style="animation:k2 1s step-end infinite"/><rect x="200" y="100" width="50" height="50" fill="none" style="animation:k2 1s step-end infinite"/><rect x="250" y="100" width="50" height="50" fill="none" style="animation:k2 1s step-end infinite"/><rect x="300" y="100" width="50" height="50" fill="none" style="animation:k2 1s step-end infinite"/><rect x="0" y="150" width="50" height="50" fill="none" style="animation:k3 1s step-end infinite"/><rect x="50" y="150" width="50" height="50" fill="none" style="animation:k3 1s step-end infinite"/><rect x="100" y="150" width="50" height="50" fill="none" style="animation:k3 1s step-end infinite"/><rect x="150" y="150" width="50" height="50" fill="none" style="animation:k3 1s step-end infinite"/><rect x="200" y="150" width="50" height="50" fill="none" style="animation:k3 1s step-end infinite"/><rect x="250" y="150" width="50" height="50" fill="none" style="animation:k3 1s step-end infinite"/><rect x="300" y="150" width="50" height="50" fill="none" style="animation:k3 1s step-end infinite"/><rect x="0" y="200" width="50" height="50" fill="none" style="animation:k4 1s step-end infinite"/><rect x="50" y="200" width="50" height="50" fill="none" style="animation:k4 1s step-end infinite"/><rect x="100" y="200" width="50" height="50" fill="none" style="animation:k4 1s step-end infinite"/><rect x="150" y="200" width="50" height="50" fill="none" style="animation:k4 1s step-end infinite"/><rect x="200" y="200" width="50" height="50" fill="none" style="animation:k4 1s step-end infinite"/><rect x="250" y="200" width="50" height="50" fill="none" style="animation:k4 1s step-end infinite"/><rect x="300" y="200" width="50" height="50" fill="none" style="animation:k4 1s step-end infinite"/><rect x="0" y="250" width="50" height="50" fill="none" style="animation:k5 1s step-end infinite"/><rect x="50" y="250" width="50" height="50" fill="none" style="animation:k5 1s step-end infinite"/><rect x="100" y="250" width="50" height="50" fill="none" style="animation:k5 1s step-end infinite"/><rect x="150" y="250" width="50" height="50" fill="none" style="animation:k5 1s step-end infinite"/><rect x="200" y="250" width="50" height="50" fill="none" style="animation:k5 1s step-end infinite"/><rect x="250" y="250" width="50" height="50" fill="none" style="animation:k5 1s step-end infinite"/><rect x="300" y="250" width="50" height="50" fill="none" style="animation:k5 1s step-end infinite"/><rect x="0" y="300" width="50" height="50" fill="none" style="animation:k6 1s step-end infinite"/><rect x="50" y="300" width="50" height="50" fill="none" style="animation:k6 1s step-end infinite"/><rect x="100" y="300" width="50" height="50" fill="none" style="animation:k6 1s step-end infinite"/><rect x="150" y="300" width="50" height="50" fill="none" style="animation:k6 1s step-end infinite"/><rect x="200" y="300" width="50" height="50" fill="none" style="animation:k6 1s step-end infinite"/><rect x="250" y="300" width="50" height="50" fill="none" style="animation:k6 1s step-end infinite"/><rect x="300" y="300" width="50" height="50" fill="none" style="animation:k6 1s step-end infinite"/></svg>